<?xml version="1.0" encoding="UTF-8"?> <!-- Generator: Adobe Illustrator 25.2.1, SVG Export Plug-In . SVG Version: 6.00 Build 0) --> <svg xmlns="http://www.w3.org/2000/svg" xmlns:xlink="http://www.w3.org/1999/xlink" version="1.1" id="Layer_1" x="0px" y="0px" viewBox="0 0 509 499.9" style="enable-background:new 0 0 509 499.9;" xml:space="preserve"> <style type="text/css"> .st0{fill:#939E9A;} .st1{fill:#C0BA9A;} </style> <g> <path class="st0" d="M470.6,224.1V73c0-24.8-19.8-44.9-44.1-44.9h-21.2V17c0-9.3-7.4-16.8-16.7-17h-13.9C365.4,0.2,358,7.7,358,17 v11.1h-52.7V17c0-9.3-7.4-16.8-16.7-17h-14c-9.3,0.2-16.7,7.7-16.7,17v11.1h-52.7V17c0-9.3-7.4-16.8-16.7-17h-13.9 c-9.3,0.2-16.7,7.7-16.7,17v11.1h-53.1V17c0-9.3-7.4-16.8-16.7-17H73.9c-9.3,0.2-16.7,7.7-16.7,17v11.1h-13C19.9,28.1,0,48.2,0,73 v289.5c0,3.4,2.7,6.1,6.1,6.2c3.4-0.1,6.1-2.8,6.1-6.2v-224h446.4V224c-0.1,1.7,0.5,3.3,1.6,4.5s2.6,1.9,4.2,2h0.2 c3.3,0,6-2.6,6.1-5.9v-0.5H470.6z M369.7,17c0-1.3,0.5-2.5,1.3-3.4c0.9-0.9,2-1.4,3.3-1.4h14c1.2,0,2.4,0.5,3.3,1.4 s1.4,2.1,1.4,3.3V54c0,2.6-2,4.7-4.6,4.8h-14.1c-2.6,0-4.7-2.1-4.6-4.7L369.7,17L369.7,17z M269.5,17c0-2.6,2-4.7,4.6-4.8h14.1 c2.6,0,4.6,2.1,4.6,4.7V54c0,2.6-2,4.7-4.6,4.8h-14.1c-2.6,0-4.6-2.1-4.6-4.7V17z M169.4,17c0-1.3,0.5-2.5,1.3-3.4 c0.9-0.9,2.1-1.4,3.3-1.4h14.1c2.6,0,4.6,2.1,4.6,4.7V54c0,2.6-2,4.7-4.6,4.8H174c-2.6,0-4.6-2.1-4.6-4.7V17z M69.2,17 c0-1.3,0.5-2.5,1.3-3.4s2-1.4,3.3-1.4h14.1c2.6,0,4.6,2.1,4.7,4.7V54c0.1,2.6-2,4.8-4.6,4.8H73.9c-2.6,0-4.6-2.1-4.7-4.7L69.2,17z M458,126.3H12V73c0-18,14.4-32.7,32.1-32.7h13.2v13.9c0,9.2,7.4,16.8,16.6,17h14c9.3-0.1,16.7-7.7,16.7-17v-14h52.7v13.9 c0,9.3,7.4,16.9,16.7,17h14c9.3-0.1,16.7-7.7,16.7-17V40.2h52.7v13.9c0,9.3,7.4,16.8,16.7,17h14c9.3-0.1,16.7-7.7,16.7-17V40.2 h52.6v13.9c0,9.3,7.4,16.8,16.7,17h14c9.3-0.1,16.7-7.7,16.7-17V40.2H426c17.7,0,32.1,14.7,32.1,32.8v53.3H458z"></path> <path class="st0" d="M5.9,391.3c-3.3,0.1-6,2.9-5.9,6.3v39.3c0,10,8,18.2,18,18.3h65.4c3.4-0.1,6.1-2.8,6.1-6.2c0-3.3-2.7-6-6-6H18 c-1.6,0-3.1-0.6-4.2-1.7S12,438.6,12,437v-39.4C12,394.1,9.3,391.3,5.9,391.3z"></path> <path class="st0" d="M83.2,163.8H56.9c-1.5,0-3,0.6-4.2,1.6c-2.5,2.3-2.6,6.2-0.3,8.7c1.1,1.2,2.6,1.9,4.2,2h26.7 c1.6-0.1,3.1-0.8,4.2-2c2.3-2.5,2.1-6.5-0.4-8.8C86,164.5,84.7,163.9,83.2,163.8z"></path> <path class="st0" d="M164,163.8h-26.7c-1.6,0.1-3.1,0.8-4.1,2c-1.1,1.2-1.7,2.8-1.6,4.4c0.1,3.2,2.6,5.7,5.8,5.9h26.1 c3.4,0,6.2-2.7,6.2-6.1C169.7,166.8,167.2,164.1,164,163.8L164,163.8z"></path> <path class="st0" d="M244,163.8h-26.6c-3.4,0.2-6,3.1-5.8,6.5c0.2,3.1,2.7,5.6,5.8,5.8h26.1c3.4,0,6.2-2.7,6.2-6.1 C249.7,166.8,247.2,164.1,244,163.8L244,163.8z"></path> <path class="st0" d="M324.2,163.8h-26.7c-3.4,0.2-6,3.1-5.8,6.5c0.2,3.1,2.7,5.6,5.8,5.8h26.1c3.4,0,6.2-2.7,6.2-6.1 C329.9,166.8,327.4,164.1,324.2,163.8L324.2,163.8z"></path> <path class="st0" d="M409.9,170c0-1.6-0.6-3.2-1.8-4.4c-1.1-1.2-2.7-1.8-4.3-1.8h-26.1c-1.6,0.1-3.1,0.8-4.1,2 c-2.3,2.5-2.1,6.5,0.4,8.8c1,0.9,2.4,1.5,3.8,1.6h26.1C407.3,176.1,410,173.4,409.9,170z"></path> <path class="st0" d="M52.4,212.7c1.1,1.2,2.6,1.9,4.2,2c0.2,0,0.3,0,0.5,0h26.2c1.6-0.1,3.1-0.8,4.2-2s1.6-2.8,1.6-4.4 c-0.1-3.2-2.6-5.7-5.8-5.9H56.9c-3.3,0-6,2.6-6.1,5.9C50.7,209.9,51.3,211.5,52.4,212.7z"></path> <path class="st0" d="M164,202.2h-26.7c-1.6,0.1-3.1,0.8-4.1,2c-2.3,2.5-2.1,6.5,0.4,8.8c1,0.9,2.4,1.5,3.8,1.6h26.1 c3.4,0.2,6.3-2.5,6.5-5.9C170.1,205.2,167.4,202.4,164,202.2L164,202.2z"></path> <path class="st0" d="M244,202.2h-26.6c-3.4,0.2-6,3.1-5.8,6.5c0.2,3.1,2.7,5.6,5.8,5.8h26.1c3.4,0,6.2-2.7,6.2-6.1 C249.7,205.2,247.2,202.5,244,202.2z"></path> <path class="st0" d="M324.2,202.2h-26.7c-3.4,0.2-6,3.1-5.8,6.5c0.2,3.1,2.7,5.6,5.8,5.8h26.1c3.4,0,6.2-2.7,6.2-6.1 C329.9,205.2,327.4,202.5,324.2,202.2L324.2,202.2z"></path> <path class="st0" d="M409.9,208.5c0-1.6-0.6-3.2-1.8-4.3c-1.1-1.2-2.7-1.8-4.3-1.8h-26.1c-1.6,0.1-3.1,0.8-4.1,2 c-2.3,2.5-2.1,6.5,0.4,8.8c1,0.9,2.4,1.5,3.8,1.6h26.1C407.2,214.6,409.9,211.9,409.9,208.5z"></path> <path class="st1" d="M177.1,404.4c10.9,10.9,28.5,11,39.5,0.2c0.1-0.1,0.1-0.1,0.2-0.2l105.6-107.6c11.2-11.1,11.5-29.1,0.7-40.5 c-10.5-11.2-28.1-11.7-39.3-1.1c-0.2,0.2-0.3,0.3-0.5,0.5l-0.6,0.6L197,343.7l-18.7-19.1c-10.7-11-28.3-11.2-39.2-0.5 c-0.2,0.2-0.3,0.3-0.5,0.5c-11,11.2-11,29.2-0.1,40.4l-1,1.1l0,0l1.1-1.1L177.1,404.4z M146.7,333.6l0.3-0.3c3-3,7-4.7,11.3-4.8 l0,0c4.2,0,8.3,1.7,11.3,4.8l23.1,23.5c2.3,2.3,6,2.4,8.4,0.1l0.1-0.1l90.1-91.7c6.1-6.3,16.2-6.4,22.5-0.3 c0.1,0.1,0.2,0.2,0.3,0.3c6.3,6.4,6.3,16.7,0,23.2L208.3,395.7c-3,3.1-7,4.8-11.3,4.9l0,0c-4.3,0-8.4-1.8-11.3-4.9l-38.6-39.3 C140.8,350.1,140.7,340.1,146.7,333.6L146.7,333.6z"></path> <path class="st0" d="M111.8,449.4c0.1,3.2,2.6,5.8,5.8,5.9h211.7l0.5,0.7c18,27.4,48.6,43.8,81.3,43.9c19.6,0,38.7-6,54.8-17.1 c21.7-14.9,36.5-37.9,41.3-63.8c5-25.9-0.4-52.8-15-74.8c-5.8-8.8-13-16.6-21.3-23.1l-0.6-0.5V259c-0.2-3.3-3-5.9-6.3-5.8 c-3.2,0.1-5.7,2.7-5.8,5.8v53.7l-2.3-1.2c-48-25.2-107.2-6-132,43c-13.7,26.9-14.6,58.6-2.5,86.3l0.9,2.1H117.6 C114.3,443.2,111.7,446.1,111.8,449.4z M411.3,312.6c47.4,0,86,39.3,86,87.6s-38.6,87.6-86,87.6l0,0c-47.4,0-86-39.3-86-87.6 S363.8,312.6,411.3,312.6z"></path> <path class="st0" d="M411.2,326.7c-39.8,0-72.2,33-72.2,73.6s32.4,73.6,72.2,73.6s72.2-33,72.2-73.6S451,326.8,411.2,326.7z M471.3,395.8l-2.5-1.3c-0.8-0.4-1.7-0.6-2.6-0.6h-9.1c-1.6-0.1-3.2,0.5-4.4,1.6c-1.2,1.1-1.9,2.7-1.9,4.3 c-0.1,1.6,0.5,3.2,1.6,4.4c1.1,1.2,2.6,1.9,4.2,2h9.6c0.9,0,1.8-0.2,2.6-0.6l2.5-1.2l-0.3,2.8c-3.2,28.2-24.5,50.3-52.1,53.9 l-2.5,5v-7.8h0.5c0.2-0.6,0.3-1.2,0.3-1.9v-9.5c-0.1-1.6-0.8-3.1-1.9-4.2c-1.2-1.1-2.7-1.7-4.4-1.6c-3.2,0.2-5.7,2.7-5.8,5.9v9.2 c0,0.9,0.2,1.9,0.6,2.7l1.2,2.5l-2.7-0.3c-27.9-3.3-49.7-25.5-52.9-53.9l-0.3-2.8l2.5,1.3c0.8,0.4,1.7,0.6,2.6,0.6h9.1 c3.4,0.1,6.3-2.5,6.4-5.9s-2.5-6.3-5.9-6.4H356c-0.9,0-1.8,0.2-2.6,0.6l-2.5,1.2l0.3-2.8c3.2-28.4,25-50.6,52.9-53.9l2.8-0.3 l-1.3,2.5c-0.4,0.8-0.6,1.8-0.6,2.7v9.3c0.1,1.6,0.8,3.1,1.9,4.2c1.2,1.1,2.7,1.7,4.4,1.6c3.2-0.2,5.7-2.7,5.8-5.9V344 c0-0.9-0.2-1.9-0.6-2.7l-1.2-2.5l2.7,0.3c28,3.3,49.7,25.5,52.9,54L471.3,395.8z"></path> <path class="st0" d="M433.8,400.2c-0.1-3.3-2.7-6.1-6.1-6.2h-10.4v-9.3c-0.1-3.3-2.8-5.8-6.1-5.9H411c-3.2,0.2-5.7,2.7-5.8,5.9 v15.4c0,3.4,2.7,6.1,6.1,6.2h16.5C431.1,406.4,433.8,403.6,433.8,400.2z"></path> </g> </svg> 