<?xml version="1.0" encoding="utf-8"?>
<!-- Generator: Adobe Illustrator 25.2.1, SVG Export Plug-In . SVG Version: 6.00 Build 0)  -->
<svg version="1.1" id="Layer_1" xmlns="http://www.w3.org/2000/svg" xmlns:xlink="http://www.w3.org/1999/xlink" x="0px" y="0px"
	 viewBox="0 0 595.3 841.9" style="enable-background:new 0 0 595.3 841.9;" xml:space="preserve">
<style type="text/css">
	.st0{fill:#00A9E6;}
	.st1{fill:#005E9B;}
	.st2{fill:#FFFFFF;}
</style>
<path class="st0" d="M570.8,607.3c-11.8,52.2-38.3,100-77.7,138.3c-54.6,53.1-126.6,81.3-203.1,79.2
	c-126.5-3.5-233.2-95.3-263.5-216c-8.3-6.9-15.4-14.7-21-23.3c21.8,140.8,140.8,251.5,284.1,255.4c2.8,0.1,5.6,0.1,8.4,0.1
	c77.6,0,150.5-29.6,206.3-83.8c48.4-47.1,78.5-107.7,87-173.5C585.8,592.4,578.9,600.3,570.8,607.3L570.8,607.3z"/>
<path class="st0" d="M567.4,0h-539C13.9,0,2.1,11.8,2.1,26.4v510.4c0,0.8,0.1,1.5,0.1,2.2c0.6,18.5,7.9,35.6,20.2,49.7
	c8.6,10,19.7,18.4,32.4,25c3.5,1.8,7.2,3.4,10.9,4.9c5,2,10.2,3.8,15.7,5.1c1.8,0.4,3.7,0.8,5.5,1.2c2,0.4,3.9,0.8,5.9,1.2
	c3.3,0.5,6.7,1,10.1,1.2c3.9,0.3,7.8,0.5,11.8,0.5c2.6,0,5.2-0.2,7.8-0.4c4.2-0.2,8.3-0.7,12.4-1.3c4.9-0.7,9.8-1.7,14.5-2.9
	c8.1-2.1,15.7-4.9,22.9-8.4c10-4.8,19.1-10.8,26.8-17.9c2.5-2.3,5-4.7,7.2-7.2c0.6,0.7,1.3,1.3,2,2c1.6,1.6,3.2,3.3,4.8,4.8
	c3.1,2.8,6.4,5.5,9.8,8c15.6,11.2,34.8,18.7,55.5,21.6c3.8,0.5,7.6,0.9,11.4,1.2c2.7,0.2,5.3,0.4,8,0.4c2.7,0,5.3-0.2,8-0.4
	c3.9-0.2,7.7-0.6,11.4-1.2c20.7-3,39.9-10.4,55.5-21.6c3.5-2.5,6.7-5.2,9.8-8c1.7-1.6,3.3-3.2,4.8-4.8c0.6-0.7,1.4-1.3,2-2
	c2.2,2.5,4.7,4.9,7.2,7.2c7.8,7.1,16.9,13.1,26.8,17.9c7.2,3.5,14.9,6.3,22.9,8.4c4.7,1.2,9.5,2.2,14.5,2.9c4.1,0.6,8.2,1,12.4,1.3
	c2.6,0.1,5.2,0.4,7.8,0.4c4,0,7.9-0.2,11.8-0.5c3.3-0.3,6.6-0.7,9.9-1.2c2.1-0.3,4.1-0.8,6.1-1.2c1.8-0.4,3.6-0.7,5.3-1.1
	c5.4-1.3,10.6-3.1,15.7-5.1c3.8-1.5,7.4-3.1,10.9-4.9c13.4-6.8,25.1-15.8,33.9-26.5c10.2-12.3,16.8-26.8,18.5-42.3
	c0.3-2.7,0.5-5.5,0.5-8.2V26.4C593.7,11.8,581.9,0,567.4,0L567.4,0z M577.7,536.8c0,25.1-16,47.2-40.4,60.8c-3.3,1.8-6.6,3.5-10.1,5
	c-2.7,1.1-5.4,2.1-8.2,3.1c-2.3,0.8-4.7,1.4-7.1,2c-2.8,0.7-5.6,1.3-8.5,1.9c-1,0.2-2,0.4-3,0.6c-5.4,0.8-10.9,1.3-16.6,1.4
	c-0.9,0-1.8,0.1-2.7,0.1c-3.3,0-6.5-0.3-9.7-0.5c-22.2-1.8-42.7-9.3-58.3-21.4c-2.1-1.6-4-3.4-5.9-5.1c-3.1-2.9-6-6-8.6-9.3
	c-0.1-0.1-0.2-0.2-0.2-0.3c-0.7-1-1.6-1.8-2.3-2.8l-6.6-9.5l-6.6,9.5c-1.8,2.6-3.8,5-5.9,7.3c-0.3,0.3-0.5,0.6-0.7,0.9
	c-18.1,19.5-47.1,31.3-78.3,31.3c-31.3,0-60.3-11.8-78.3-31.3c-0.3-0.3-0.5-0.6-0.7-0.9c-2.1-2.4-4.2-4.7-5.9-7.3l-6.6-9.5l-6.6,9.5
	c-0.7,1-1.6,1.9-2.3,2.8c-0.1,0.1-0.2,0.2-0.2,0.3c-2.6,3.3-5.4,6.4-8.6,9.3c-1.9,1.8-3.9,3.5-5.9,5.1
	c-15.6,12.1-36.1,19.6-58.3,21.4c-3.2,0.2-6.4,0.5-9.7,0.5c-0.9,0-1.8-0.1-2.7-0.1c-5.7-0.1-11.3-0.5-16.8-1.4
	c-0.9-0.1-1.8-0.4-2.8-0.5c-3-0.5-5.9-1.2-8.7-1.9c-2.3-0.6-4.6-1.2-6.9-2c-2.9-1-5.7-2-8.4-3.2c-3.5-1.5-6.9-3.2-10.1-5
	c-24.3-13.6-40.2-35.7-40.2-60.7V140.7h11.4h0.5h534.2h13.4L577.7,536.8L577.7,536.8z"/>
<g>
	<path class="st1" d="M110.4,293v-54.9c0-10.6-7.5-12.6-11.3-12.6c-3.8,0-11.3,2.1-11.3,12.6V293h-28V171.6h28v37.2
		c5.5-5.6,13-8.5,20.6-8.5c8.7,0,15.7,2.9,20.6,7.8c7.8,7.8,9.2,16.5,9.2,26.3V293H110.4z"/>
	<path class="st1" d="M179.5,256.2c0,7.5,5.8,14.3,16.2,14.3c9.7,0,14-2.7,18.9-7.7l16.7,16.7c-9.4,9.4-18.6,14.5-35.6,14.5
		c-20.3,0-43.7-7.3-43.7-46.9c0-30,17.1-46.9,41.1-46.9c26.6,0,41.3,19.1,41.3,44.3v11.6L179.5,256.2L179.5,256.2z M205.3,230.4
		c-1.7-3.8-5.5-7.2-12.1-7.2s-10.4,3.4-12.1,7.2c-1.2,2.5-1.5,5-1.5,7.2h27.3C206.8,235.3,206.5,233,205.3,230.4z"/>
	<path class="st1" d="M296.5,293v-7.5c-5.6,5.6-10.7,8.4-20.5,8.4c-9.2,0-16.9-3.1-22-8.2c-5.3-5.3-8-13-8-21.5
		c0-13.8,9.4-26.6,31.7-26.6h18.1v-2.4c0-8.4-4.1-11.4-13.8-11.4c-6.3,0-10.1,2.1-14.5,6.5l-17.4-17.4c9.4-9.4,17.7-12.6,33.3-12.6
		c26.3,0,40.4,10.9,40.4,33.3V293L296.5,293L296.5,293z M295.8,256.2h-13.3c-6.5,0-9.7,2.9-9.7,7.5c0,4.3,3.2,7.5,10.1,7.5
		c4.6,0,7.2-0.7,10.1-3.2c2.2-2.1,2.9-4.6,2.9-9.4L295.8,256.2z"/>
	<path class="st1" d="M367.5,293.6c-20.3,0-28.5-14.5-28.5-27.1v-94.3h28v92.3c0,3.6,1.9,5.6,5.6,5.6h9.7v23.5L367.5,293.6
		L367.5,293.6z"/>
	<path class="st1" d="M425.8,293c-20.3,0-28.5-14.5-28.5-27.1v-39.6H389v-21.5h8.4v-33.3h28v33.3h14.5v21.5h-14.5v37.5
		c0,3.6,1.9,5.6,5.6,5.6h8.9V293L425.8,293L425.8,293z"/>
	<path class="st1" d="M507.7,293v-54.9c0-10.6-7.5-12.6-11.3-12.6s-11.3,2.1-11.3,12.6V293h-28V171.6h28v37.2
		c5.5-5.6,13-8.5,20.6-8.5c8.7,0,15.7,2.9,20.7,7.8c7.8,7.8,9.2,16.5,9.2,26.3V293H507.7z"/>
	<path class="st1" d="M136.1,367.7l-2.8-3.2c-2.4,1.8-4.8,3.6-10.4,3.6c-10.4,0-14.9-5.1-14.9-13.7c0-5.1,3.7-8.8,7-11
		c-1.6-1.7-4.1-4.7-4.1-9.1c0-6.5,4.5-10.9,12.9-10.9c7.8,0,12.3,4.6,12.3,11.1c0,3.8-1.9,5.9-5.6,8.5l-1.8,1.3l5.2,6
		c1.2-1.4,1.9-4.3,2-6.4h9.5c-0.4,5.8-1.9,10.3-5.1,13.8l8.6,10.1L136.1,367.7z M120.3,349.5c-2,1.4-2.6,2.7-2.6,4.8
		c0,2.7,2.4,4.6,5.1,4.6c2.2,0,3.3-0.7,4.3-1.6L120.3,349.5z M123.7,331.9c-2.1,0-2.8,1.1-2.8,2.7c0,1,1,2.2,2.4,3.6l1.5-1
		c1-0.7,1.7-1.6,1.7-2.6C126.5,332.9,125.5,331.9,123.7,331.9L123.7,331.9z"/>
	<path class="st1" d="M209.4,367.7h-10.6l-7.9-23.9l-7.9,23.9h-10.6L159.3,324h14l5.4,22.6l7.5-22.6h9.2l7.5,22.6l5.4-22.6h14
		L209.4,367.7z"/>
	<path class="st1" d="M237.5,350.2c0,3.6,2.8,6.8,7.7,6.8c4.6,0,6.7-1.3,9-3.6l7.9,7.9c-4.5,4.5-8.8,6.9-17,6.9
		c-9.6,0-20.8-3.5-20.8-22.3c0-14.3,8.1-22.3,19.5-22.3c12.7,0,19.6,9.1,19.6,21.1v5.5L237.5,350.2L237.5,350.2z M249.7,337.9
		c-0.8-1.8-2.6-3.4-5.8-3.4c-3.2,0-5,1.6-5.8,3.4c-0.6,1.2-0.7,2.4-0.7,3.4h13C250.4,340.3,250.3,339.1,249.7,337.9z"/>
	<path class="st1" d="M284,367.7c-9.6,0-13.5-6.9-13.5-12.9v-44.8h13.3v43.9c0,1.7,0.9,2.7,2.7,2.7h4.6v11.2L284,367.7L284,367.7z"
		/>
	<path class="st1" d="M310.8,367.7c-9.6,0-13.5-6.9-13.5-12.9v-44.8h13.3v43.9c0,1.7,0.9,2.7,2.7,2.7h4.6v11.2L310.8,367.7
		L310.8,367.7z"/>
	<path class="st1" d="M348.6,367.7v-26.1c0-5-3.6-6-5.3-6s-5.4,1-5.4,6v26.1h-13.3V324h13v3.6c2.7-2.7,6.7-4.1,10.1-4.1
		c4.1,0,7.5,1.4,9.8,3.7c3.7,3.7,4.4,7.9,4.4,12.5v27.9L348.6,367.7L348.6,367.7z"/>
	<path class="st1" d="M381.8,350.2c0,3.6,2.8,6.8,7.7,6.8c4.6,0,6.7-1.3,9-3.6l7.9,7.9c-4.5,4.5-8.8,6.9-17,6.9
		c-9.6,0-20.8-3.5-20.8-22.3c0-14.3,8.1-22.3,19.5-22.3c12.7,0,19.6,9.1,19.6,21.1v5.5L381.8,350.2L381.8,350.2z M394,337.9
		c-0.8-1.8-2.6-3.4-5.8-3.4s-5,1.6-5.8,3.4c-0.6,1.2-0.7,2.4-0.7,3.4h13C394.8,340.3,394.6,339.1,394,337.9z"/>
	<path class="st1" d="M429.9,368.2c-6.6,0-13-0.3-19-6.3l8.6-8.6c3.6,3.6,8.4,3.6,10.6,3.6c1.9,0,5.7-0.6,5.7-2.8
		c0-1.2-0.6-2.5-3.2-2.8l-6.7-0.7c-7.5-0.7-12.7-4.1-12.7-12.7c0-9.6,8.7-14.4,17.4-14.4c7.1,0,12.9,1.1,17.2,5.3l-8.2,8.2
		c-2.2-2.2-5.8-2.6-9.3-2.6c-3.2,0-4.3,1.5-4.3,2.5c0,1.3,0.7,2.2,2.8,2.4l6.7,0.7c9.2,0.9,13.1,6.3,13.1,13.3
		C448.8,363.7,440.1,368.2,429.9,368.2L429.9,368.2z"/>
	<path class="st1" d="M470.4,368.2c-6.6,0-13-0.3-19-6.3l8.6-8.6c3.6,3.6,8.4,3.6,10.6,3.6c1.9,0,5.7-0.6,5.7-2.8
		c0-1.2-0.6-2.5-3.2-2.8l-6.7-0.7c-7.5-0.7-12.7-4.1-12.7-12.7c0-9.6,8.7-14.4,17.4-14.4c7.1,0,12.9,1.1,17.2,5.3l-8.2,8.2
		c-2.2-2.2-5.8-2.6-9.3-2.6c-3.2,0-4.3,1.5-4.3,2.5c0,1.3,0.7,2.2,2.8,2.4l6.7,0.7c9.2,0.9,13.1,6.3,13.1,13.3
		C489.3,363.7,480.5,368.2,470.4,368.2L470.4,368.2z"/>
	<path class="st1" d="M395.6,470.3c24.3,0,44.9,15.4,52.9,36.9h17.8c-8.6-31-37-53.9-70.8-53.9s-62.2,22.9-70.8,53.9h17.8
		C350.7,485.7,371.4,470.3,395.6,470.3z"/>
	<path class="st1" d="M414.1,402c-46-6.4-89.7,12.1-116.6,47.5c-26.9-35.3-70.4-53.8-116.2-47.5c-48.5,6.6-89.1,42.4-102.1,89.5
		c-10.4,37.6-2.2,73.7,15.9,107c6.5,1.2,13.4,1.8,20.4,1.8c0,0,0,0,0-0.1c-19.4-31.5-29.3-65.4-21-100.3
		c10.4-43.8,48.4-77.1,93.1-81.6c41.9-4.2,81,15.4,102.7,50.6l7.2,11.8l5.6-9.1c19.2-31.3,52.3-52.3,89-53.7
		c61-2.2,111.3,46.7,111.3,107.2c0,26.1-9.2,51.4-23.9,75.2c7,0.1,13.8-0.5,20.4-1.6C518,565.4,526.2,529.5,516,492
		C503.2,444.8,462.6,408.7,414.1,402L414.1,402z"/>
</g>
<path class="st0" d="M452.6,636.4c-4.9,5.6-8.4,9.4-8.4,9.4c-44.9,47.9-104.3,86.4-138,108.3c-3.1,2-6,3.9-8.7,5.6
	c-2.8-1.8-5.8-3.8-9.1-5.9c-33.6-21.8-92.8-60.3-137.6-108c-2.8-2.9-5.7-6-8.5-9.3c-6.7,1.3-13.3,2.1-19.9,2.4
	c5.8,7.1,10,11.6,10,11.6c46.9,52.6,111,94.2,146.8,117.5c5.1,3.3,9.7,6.3,13.6,8.9l4.7,3.1l4.7-3.1c3.9-2.5,8.3-5.4,13.2-8.6
	c36-23.3,100.3-65,147.3-117.8c0,0,4.2-4.6,9.9-11.7c-6.2-0.4-12.5-1-18.8-2.2C453.4,636.6,453,636.4,452.6,636.4L452.6,636.4z"/>
<path class="st2" d="M295.6,74.4c-5,0-8.2,2.2-10.9,5.3c-1.8-3.4-5.1-5.3-9.5-5.3c-4.4,0-7.7,2.4-9.7,5.1v-4.3h-13.4v32.2h13.4v-17
	c0-2.7,1.8-4.2,3.7-4.2c1.9,0,3.5,1.5,3.5,4.2v17H286v-17c0-2.7,1.8-4.2,3.7-4.2c1.9,0,3.5,1.5,3.5,4.2v17h13.4V86.1
	C306.7,78.9,302.4,74.4,295.6,74.4"/>
<path class="st2" d="M407.2,92.3l-5-9.6l-4.9,9.6H407.2z M429.5,105c0.3,0.6,0.3,1.1,0,1.6c-0.3,0.5-0.8,0.7-1.5,0.7H416
	c-0.2,0-0.5-0.1-0.8-0.3c-0.3-0.2-0.5-0.4-0.6-0.6l-2.6-5.1h-19.4l-2.6,5.1c-0.1,0.2-0.3,0.4-0.6,0.6c-0.3,0.2-0.5,0.3-0.8,0.3
	h-10.9c-0.7,0-1.2-0.2-1.5-0.7c-0.3-0.5-0.3-1,0.1-1.6l21.1-37c0.5-0.8,1.4-1.4,2.4-1.4h7.9c1,0,1.9,0.5,2.4,1.5L429.5,105z"/>
<path class="st2" d="M240.7,75.7c0.1-0.2,0.1-0.4,0.1-0.6h9v32.2h-13.4V89.9L240.7,75.7z"/>
<path class="st2" d="M244.9,70.4c4.8-1,7.4-5.3,6.5-9.8c-0.9-4.5-5.3-7.5-9.8-6.6c-4.5,0.9-7.4,5.3-6.5,9.8
	C236,68.3,240.4,71.3,244.9,70.4"/>
<path class="st2" d="M258.5,70.6c1.4-0.6,2.9-1,4.5-1c1.6,0,3.2,0.4,4.5,1c1.3,0.6,2.8,1,4.4,1s3-0.4,4.4-1c1.4-0.6,2.9-1,4.5-1
	c1.6,0,3.2,0.4,4.5,1c1.3,0.6,2.8,1,4.4,1c1.5,0,3-0.4,4.4-1c0.6-0.3,1.2-0.5,1.9-0.7l-24.8-13.9l6.7-12.1c0.1-0.2,0.1-0.4,0.2-0.5
	c1.3-3.2-1-5.9-2.8-6.3l-25.4-4.7c-0.2,0-0.4,0-0.5,0c-2.7,0-4.8,2.2-4.8,4.8c0,2.4,1.8,4.4,4.1,4.8l16.4,3.1L250.8,71
	c1,0.3,2.1,0.5,3.3,0.5C255.6,71.5,257.1,71.2,258.5,70.6"/>
<path class="st2" d="M226.6,75.2L223.1,88l-3.8-12.8h-10.9l-3.8,12.6l-3.2-12.6h-7.3c0,0,2.4,1.3,2.5,1.3c0.7,0.4,1,1.3,0.6,2.1
	l-3.8,7.2l-0.4,0.7c-0.2,0.3-0.4,0.5-0.7,0.7c0.7,0.4,1.3,0.8,1.9,1.2c2.4,1.8,3.8,4.4,3.8,8.2v0.1c0,1.2-0.1,2.3-0.4,3.3
	c-0.2,0.9-0.5,1.7-0.9,2.4l1.4,4.8h11.1l4.5-13.9l4.2,13.9h11.2l9.9-32.2L226.6,75.2L226.6,75.2z"/>
<path class="st2" d="M196.5,96c-0.1-1.8-0.5-3.2-1.3-4.4c-0.6-0.9-1.4-1.7-2.3-2.3c-0.6-0.4-1.2-0.8-1.9-1.1c-2-1-4.5-1.7-7.5-2.5
	c-3.2-0.8-3.9-1.2-3.9-1.9v-0.1c0-0.7,0.6-1,1.9-1c2.3,0,5.5,0.8,8.5,2.2c0.6,0.3,1.2,0.5,1.7,0.8l0.1-0.2l1-1.9l3.1-5.8
	c-0.9-0.6-1.9-1.1-3-1.5c-1.3-0.5-2.8-1-4.3-1.4c-0.5-0.1-1-0.2-1.6-0.3c-1.8-0.3-3.7-0.5-5.6-0.5c-8.4,0-14,3.9-14,11v0.1
	c0,6.7,5,8.8,13.1,10.8c3.2,0.8,3.8,1.2,3.8,1.9V98c0,0.8-0.7,1.1-1.9,1.1c-3.6,0-8-1.2-11.9-3.6l-4.5,7.6
	c4.6,3.1,10.2,4.7,16.5,4.7c6.1,0,10.4-2,12.5-5.5c0.4-0.7,0.7-1.4,1-2.2c0.3-1,0.5-2.1,0.5-3.3v-0.1
	C196.6,96.4,196.5,96.2,196.5,96"/>
<path class="st2" d="M330.6,83.7c0,0,6.4,0.2,6.4-4.3c0,0,0.1-3.5-5.9-3.5h-8.1v7.7L330.6,83.7 M355,105c0,0,1.3,2.3-1.5,2.3h-13
	c0,0-0.9,0.1-1.4-1l-6.6-12.2c0,0-0.8-1.3-2.3-1.4c-3.2,0-6.8-0.1-6.8-0.1l-0.1,13.2c0,1.4-1.5,1.5-1.5,1.5h-11.5
	c-1.4,0-1.6-1.6-1.6-1.6V68.3c0-0.2,0.1-0.5,0.1-0.7c0.2-0.3,0.4-0.5,0.7-0.7s0.6-0.2,0.9-0.2h27.4c14.3,0,16.4,15.4,9.9,20.9
	c-0.7,0.6-1.4,1.1-2.2,1.6L355,105z"/>
<path class="st2" d="M392.8,66.7h-11c0,0-0.8,0-1.5,1.2l-11.4,19.3L357,67.7c-0.6-1-1.4-1-1.4-1h-9.2c-0.3,0-0.8,0.2-0.8,0.2
	s2,0.7,4.3,3.2c1.2,1.3,2.3,3.6,2.6,4.7c0.5,2,0.7,3.4,0.6,5.3c-0.1,2.5-1.3,5.5-1.3,5.5l0,0l11.7,20.8c0,0,0.6,0.9,1.3,0.9h7
	c0,0,0.7,0.1,1.5-1.3L394.6,69C394.5,69,395.6,66.7,392.8,66.7"/>
</svg>
